<?xml version="1.0" encoding="UTF-8" standalone="no"?>
<!-- Created with Inkscape (http://www.inkscape.org/) -->

<svg
        version="1.1"
        id="svg1"
        width="844"
        height="844"
        viewBox="0 0 844 844"
        xmlns="http://www.w3.org/2000/svg">
    <defs
            id="defs1">
        <filter
                style="color-interpolation-filters:sRGB;"
                id="filter25"
                x="-0.13983442"
                y="-0.10380743"
                width="1.3669834"
                height="1.2700355">
            <feFlood
                    result="flood"
                    in="SourceGraphic"
                    flood-opacity="1.000000"
                    flood-color="rgb(0,0,0)"
                    id="feFlood24"/>
            <feGaussianBlur
                    result="blur"
                    in="SourceGraphic"
                    stdDeviation="14.086300"
                    id="feGaussianBlur24"/>
            <feOffset
                    result="offset"
                    in="blur"
                    dx="21.109642"
                    dy="20.328623"
                    id="feOffset24"/>
            <feComposite
                    result="comp1"
                    operator="in"
                    in="flood"
                    in2="offset"
                    id="feComposite24"/>
            <feComposite
                    result="comp2"
                    operator="over"
                    in="SourceGraphic"
                    in2="comp1"
                    id="feComposite25"/>
        </filter>
    </defs>
    <g
            id="g1"
            transform="translate(-73.831484,-93.706596)">
        <path
                style="fill:#333333;stroke:none;stroke-width:1.01122"
                d="M 238.0763,936.36241 C 162.69358,935.23277 93.13708,876.91909 80.013131,800.44401 69.438166,729.88213 76.075147,657.93121 74.148431,586.73545 75.074202,473.52862 72.606981,360.07713 76.923778,247.02899 85.861859,160.74547 164.97674,91.131645 249.66115,94.701672 c 166.50799,-0.988389 333.07437,-1.801781 499.5654,0.441472 76.6668,0.505143 147.42371,59.903986 162.05776,136.990736 11.38872,75.12653 3.97197,151.79406 6.17749,227.54328 -1.05918,107.62826 1.8281,215.39266 -2.68639,322.92313 -6.30716,76.20148 -67.0905,144.02492 -142.46171,151.06183 -92.79468,7.36651 -186.16402,2.1002 -279.19626,3.66212 -85.01307,-0.18846 -170.03356,0.061 -255.04114,-0.96183 z"
                id="path10"/>
        <path
                style="font-size:322.601px;line-height:399.51px;font-family:'Arial Black';-inkscape-font-specification:'Arial Black, ';fill:#f9f9f9;stroke-width:5.71537;stroke-linecap:round"
                d="m 177.67659,207.79436 h 99.54358 q 29.43414,0 47.47918,9.05872 18.19296,9.05873 30.02578,26.00191 11.83282,16.94317 17.15759,39.42222 5.32476,22.47907 5.32476,47.6422 0,39.42223 -7.98715,61.23027 -7.83924,21.64029 -21.89071,36.40266 -14.05148,14.59461 -30.17369,19.45949 -22.03862,6.71016 -39.93576,6.71016 h -99.54358 z m 67.00333,55.69439 v 134.3711 h 16.41804 q 21.00324,0 29.87787,-5.20038 8.87461,-5.36813 13.90356,-18.45296 5.02894,-13.25258 5.02894,-42.77732 0,-39.08673 -11.24117,-53.51358 -11.24119,-14.42686 -37.27338,-14.42686 z m 312.09058,89.74848 58.72035,20.13051 q -5.9164,28.01494 -18.63668,46.80341 -12.72029,18.78848 -31.65279,28.35046 -18.7846,9.56199 -47.92292,9.56199 -35.35054,0 -57.8329,-11.57504 -22.33444,-11.74279 -38.60457,-41.09978 -16.27012,-29.35697 -16.27012,-75.15387 0,-61.06252 28.54668,-93.77458 28.69458,-32.87982 81.0548,-32.87982 40.97113,0 64.34094,18.78846 23.51774,18.78848 34.90682,57.70744 l -59.16409,14.93013 q -3.10611,-11.23954 -6.50805,-16.43992 -5.62058,-8.72321 -13.75566,-13.42033 -8.13506,-4.69712 -18.19295,-4.69712 -22.77817,0 -34.90681,20.80152 -9.17044,15.43339 -9.17044,48.48096 0,40.93202 10.94537,56.19765 10.94535,15.09788 30.76532,15.09788 19.22832,0 28.99041,-12.24606 9.90998,-12.24605 14.34729,-35.56389 z m 91.55642,-145.44287 h 165.65945 v 52.84257 h -98.3603 V 303.582 h 84.01301 v 49.65523 h -84.01301 v 100.48476 h -67.29915 z"
                id="text22"
                aria-label="DCF"/>
        <g
                id="g21"
                transform="translate(-19.62743,30)"
                style="filter:url(#filter25)">
            <path
                    style="fill:#00ffff"
                    d="m 619.43317,661.46069 c 18.82188,-8.11669 19.62862,-37.54299 1.90931,-47.36961 -16.73686,-11.50608 -42.47546,2.58236 -41.42507,22.98706 -0.49608,19.6958 22.15871,33.23409 39.51576,24.38255 z"
                    id="path17"/>
            <path
                    style="fill:#00ffff"
                    d="m 665.51936,704.11246 c 33.76725,-28.10513 40.45641,-82.59471 14.58075,-118.1586 -6.63199,-11.77675 -22.36578,-27.69519 -34.51497,-12.52048 -11.19867,16.42697 13.01427,26.85785 15.99291,41.81265 9.73568,22.71223 1.8412,49.17476 -14.63305,66.57388 -12.19416,12.48078 4.77266,30.64496 18.57436,22.29255 z"
                    id="path16"/>
            <path
                    style="fill:#00ffff"
                    d="m 709.618,748.15391 c 44.86137,-39.86773 61.24766,-108.18961 39.1176,-164.08373 -9.13548,-23.26811 -22.93836,-45.41374 -42.08105,-61.70118 -12.04924,-7.35394 -28.96406,8.22955 -20.42936,20.35187 15.26128,16.64238 29.33359,35.16392 35.94643,57.10221 6.82771,19.09353 5.96013,39.98266 3.93676,59.82819 -4.8321,26.71253 -20.14518,49.90408 -38.14039,69.65284 -12.31126,11.7899 6.48748,29.17524 18.97599,20.8232 l 1.24388,-0.87416 z"
                    id="path15"/>
            <path
                    style="fill:#00ffff"
                    d="m 746.07117,796.98546 c 15.44062,-9.43226 26.52226,-24.7169 37.17188,-39.09005 24.93274,-36.53704 40.44867,-80.5944 38.19136,-125.19739 -0.43512,-60.145 -28.82321,-119.71853 -75.55779,-157.64947 -12.52316,-10.46895 -32.29224,9.81847 -20.35132,21.54556 20.67232,18.65024 38.69884,40.64633 49.77352,66.40036 22.57879,49.25703 20.50901,108.65394 -4.4536,156.63078 -9.74275,20.40259 -24.51134,37.62579 -40.14074,53.70585 -11.98296,9.79272 2.56556,28.64969 15.36669,23.65436 z"
                    id="path12"/>
        </g>
        <path
                d="m 189.63878,530.51232 h 172.03154 v 50.44715 q -22.42631,25.68218 -37.47365,55.58358 -18.23042,36.32195 -28.79249,80.89889 -8.39179,34.67095 -11.2855,81.99955 h -58.74249 q 6.94493,-65.85646 21.84758,-110.4334 14.90265,-44.57694 47.1676,-95.39097 H 189.63878 Z m 197.64096,0 h 172.03155 v 50.44715 q -22.42632,25.68218 -37.47366,55.58358 -18.23042,36.32195 -28.79249,80.89889 -8.39178,34.67095 -11.2855,81.99955 h -58.74248 q 6.94492,-65.85646 21.84757,-110.4334 14.90265,-44.57694 47.16761,-95.39097 h -104.7526 z"
                id="text23"
                style="font-size:333.653px;line-height:413.198px;font-family:'Arial Black';-inkscape-font-specification:'Arial Black, ';fill:#ffb380;stroke-width:5.91118;stroke-linecap:round"
                aria-label="77"/>
    </g>
</svg>
