<?xml version="1.0" encoding="UTF-8" standalone="no"?>
<svg
        width="128"
        height="128"
        viewBox="0 0 128 128"
        version="1.1"
        id="svg5"
        xmlns="http://www.w3.org/2000/svg">
    <defs
            id="defs5"/>
    <rect
            x="8"
            y="8"
            width="112"
            height="112"
            rx="16"
            ry="16"
            fill="#2d4b7a"
            id="rect1"/>
    <path
            id="rect2"
            d="M 28 18 C 22.46 18 18 22.46 18 28 L 18 80 C 18 85.54 22.46 90 28 90 L 38.289062 90 L 38.224609 108.0332 L 49.337891 90 L 100 90 C 105.54 90 110 85.54 110 80 L 110 28 C 110 22.46 105.54 18 100 18 L 28 18 z "
            style="fill:#6a6aaa;fill-opacity:1"/>
    <rect
            x="24"
            y="28"
            width="80"
            height="10"
            rx="3"
            fill="#dce9ff"
            id="rect3"/>
    <rect
            x="24"
            y="44"
            width="64"
            height="10"
            rx="3"
            fill="#dce9ff"
            id="rect4"/>
    <rect
            x="24"
            y="60"
            width="70"
            height="10"
            rx="3"
            fill="#dce9ff"
            id="rect5"/>
</svg>
