<svg xmlns="http://www.w3.org/2000/svg" viewBox="0 0 24 24" width="24" height="24">
    <path fill="#ffffff"
          d="M12 2a10 10 0 0 0-9.7 7.6 1.4 1.4 0 1 0 2.7.7 7.2 7.2 0 0 1 11.6-3.5h-3a1.4 1.4 0 0 0 0 2.8h5.8A1.6 1.6 0 0 0 21 8V2.2a1.4 1.4 0 0 0-2.8 0v2.3A9.9 9.9 0 0 0 12 2z"/>
    <path fill="#ffffff"
          d="M20.7 13a1.4 1.4 0 0 0-1.7 1 7.2 7.2 0 0 1-11.6 3.2h3a1.4 1.4 0 0 0 0-2.8H4.6A1.6 1.6 0 0 0 3 16v5.8a1.4 1.4 0 0 0 2.8 0v-2.3A10 10 0 0 0 21.7 14.7a1.4 1.4 0 0 0-1-1.7z"/>
</svg>
