<?xml version="1.0" encoding="UTF-8" standalone="no"?>
<svg
        xmlns:inkscape="http://www.inkscape.org/namespaces/inkscape"
        xmlns:sodipodi="http://sodipodi.sourceforge.net/DTD/sodipodi-0.dtd"
        width="128"
        height="128"
        viewBox="0 0 128 128"
        version="1.1"
        id="svg4"
        sodipodi:docname="help-question.svg"
        inkscape:version="1.4.2 (ebf0e94, 2025-05-08)"
        xmlns="http://www.w3.org/2000/svg">
    <sodipodi:namedview
            id="namedview4"
            pagecolor="#ffffff"
            bordercolor="#000000"
            borderopacity="0.25"
            inkscape:showpageshadow="2"
            inkscape:pageopacity="0.0"
            inkscape:pagecheckerboard="0"
            inkscape:deskcolor="#d1d1d1"
            showgrid="false"
            inkscape:zoom="6.3359375"
            inkscape:cx="64"
            inkscape:cy="64"
            inkscape:window-width="1920"
            inkscape:window-height="1016"
            inkscape:window-x="1305"
            inkscape:window-y="27"
            inkscape:window-maximized="1"
            inkscape:current-layer="svg4"/>
    <defs
            id="defs2">
        <radialGradient
                id="face"
                cx="36%"
                cy="28%"
                r="70%">
            <stop
                    offset="0%"
                    stop-color="#2F67B6"
                    id="stop1"/>
            <stop
                    offset="100%"
                    stop-color="#153462"
                    id="stop2"/>
        </radialGradient>
    </defs>
    <circle
            cx="64"
            cy="64"
            r="40"
            fill="url(#face)"
            id="circle2"/>
    <circle
            cx="64"
            cy="64"
            r="38.5"
            fill="none"
            stroke="#7FA8E7"
            stroke-width="1.4"
            opacity="0.65"
            id="circle3"/>
    <g
            transform="matrix(0.9,0,0,0.9,6.4,2.4)"
            id="g4">
        <path
                fill="#ffffff"
                d="M 64,36 C 51.3,36 41,45.1 41,56.5 h 7.9 c 0,-7.1 6.8,-12.9 15.1,-12.9 8.4,0 15.1,5.8 15.1,12.9 0,5 -3.5,8.1 -9.6,12.6 -6.4,4.8 -10.9,9.1 -10.9,16.4 v 2 h 7.5 v -1.4 c 0,-4.5 2.8,-7.2 8.6,-11.4 6.8,-5 11.9,-9.2 11.9,-18.3 C 86.7,45.1 76.4,36 64,36 Z"
                id="path3"/>
        <circle
                cx="64"
                cy="96.5"
                r="5.1999998"
                fill="#ffffff"
                id="circle4"/>
    </g>
</svg>
