<svg xmlns="http://www.w3.org/2000/svg" width="64" height="64" viewBox="0 0 64 64">
    <rect x="4" y="14" width="56" height="36" rx="6" ry="6" fill="#2f5d99"/>
    <g fill="#ffffff">
        <rect x="10" y="20" width="6" height="6" rx="1"/>
        <rect x="18" y="20" width="6" height="6" rx="1"/>
        <rect x="26" y="20" width="6" height="6" rx="1"/>
        <rect x="34" y="20" width="6" height="6" rx="1"/>
        <rect x="42" y="20" width="6" height="6" rx="1"/>
        <rect x="50" y="20" width="4" height="6" rx="1"/>
        <rect x="10" y="28" width="6" height="6" rx="1"/>
        <rect x="18" y="28" width="6" height="6" rx="1"/>
        <rect x="26" y="28" width="6" height="6" rx="1"/>
        <rect x="34" y="28" width="6" height="6" rx="1"/>
        <rect x="42" y="28" width="12" height="6" rx="1"/>
        <rect x="10" y="36" width="10" height="6" rx="1"/>
        <rect x="22" y="36" width="24" height="6" rx="1"/>
        <rect x="48" y="36" width="6" height="6" rx="1"/>
    </g>
</svg>
