<?xml version="1.0" encoding="UTF-8"?>
<svg width="400" height="400" version="1.1" viewBox="0 0 400 400" xmlns="http://www.w3.org/2000/svg"><g transform="translate(-133 -255.2)"><path d="m194.8 259.6h276.4c31.82 0 57.43 25.61 57.43 57.43v276.4c0 31.82-25.61 57.43-57.43 57.43h-276.4c-31.82 0-57.43-25.61-57.43-57.43v-276.4c0-31.82 25.61-57.43 57.43-57.43z" fill="#afc" stroke="#0a4" stroke-linecap="round" stroke-width="8.759"/><g transform="matrix(.8858 0 0 .8858 147 269.3)" fill="#2aff2a" stroke="#afa" stroke-width="8.338"><path d="m209 15a195 195 0 1 0 2 0z"/><path d="m210 15v390m195-195h-390m44-120a260 260 0 0 0 302 0m0 240a260 260 0 0 0-302 0m136-310a250 250 0 0 0 0 382m30 0a250 250 0 0 0 0-382"/></g><path d="m383.3 307.2h-159.2a29.99 29.99 0 0 0-29.91 29.91v102.7a29.99 29.99 0 0 0 29.91 29.91h9.47a8.397 8.397 0 0 1 7.807 8.907l-2.924 42.09 56.5-48.56a8.424 8.424 0 0 1 5.902-2.441h82.47a30.05 30.05 0 0 0 29.91-29.91v-102.7a30.05 30.05 0 0 0-29.91-29.91z" fill="#fff" stroke="#000" stroke-width="2.683"/><g transform="matrix(1.074 0 0 1.074 -21.08 -21.03)"><path d="m224.1 284.4h159.2a46.82 46.82 0 0 1 46.68 46.68v102.7a46.82 46.82 0 0 1-46.68 46.68h-79.38l-69.75 59.99a8.37 8.37 0 0 1-11.78-0.939 8.209 8.209 0 0 1-2.066-5.983l3.649-53.07a46.82 46.82 0 0 1-46.57-46.68v-102.7a46.82 46.82 0 0 1 46.68-46.68z" fill="#fff" stroke="#000" stroke-width="2.683"/><path d="m446 353.9a45.26 45.26 0 0 1 36.65 44.35v102.8a45.26 45.26 0 0 1-45.13 44.99h-1.637l3.783 54.73a6.895 6.895 0 0 1-1.61 4.883 6.814 6.814 0 0 1-9.605 0.7512l-70.21-62.13h-92.45l45.61-46.31h96.58a38.42 38.42 0 0 0 38.28-38.28v-102.7-3.032z" fill="#00aad4" stroke="#000" stroke-width="2.683"/><g><path d="m251.3 367.9a16.1 16.1 0 1 1-16.1 16.1 16.1 16.1 0 0 1 16.1-16.1z"/><path d="m303.7 367.9a16.1 16.1 0 1 1-16.1 16.1 16.1 16.1 0 0 1 16.1-16.1z"/><path d="m356.2 367.9a16.1 16.1 0 1 1-16.1 16.1 16.1 16.1 0 0 1 16.1-16.1z"/></g></g></g></svg>
