<?xml version="1.0" encoding="UTF-8"?>
<svg width="48" height="48" version="1.1" viewBox="0 0 48 48" xmlns="http://www.w3.org/2000/svg">
    <path d="M8 36V12h12l4-4h16v28H8z" fill="#1565c0"/>
    <path d="M12 16h24v20H12z" fill="#e3f2fd"/>
    <path d="m24 18.5a1.5 1.5 0 0 0-1.5 1.5v8.379l-2.439-2.439a1.5 1.5 0 0 0-2.121 0 1.5 1.5 0 0 0 0 2.121l5 5a1.5 1.5 0 0 0 1.061 0.4395 1.5 1.5 0 0 0 1.061-0.4395l5-5a1.5 1.5 0 0 0 0-2.121 1.5 1.5 0 0 0-2.121 0l-2.439 2.439v-8.379a1.5 1.5 0 0 0-1.5-1.5z"
          fill="#80b3ff" stop-color="#000000" stroke-linecap="round"/>
</svg>
