<?xml version="1.0" encoding="UTF-8"?>
<svg width="128" height="128" version="1.1" viewBox="0 0 128 128" xmlns="http://www.w3.org/2000/svg">
    <defs>
        <linearGradient id="bg" y2="1">
            <stop stop-color="#e3f2fd" offset="0"/>
            <stop stop-color="#bbdefb" offset="1"/>
        </linearGradient>
    </defs>
    <path d="m24 8h80c8.864 0 16 7.136 16 16v80c0 8.864-7.136 16-16 16h-80c-8.864 0-16-7.136-16-16v-80c0-8.864 7.136-16 16-16z"
          fill="url(#bg)" stroke="#1565c0" stroke-width="4"/>
    <path d="M32 36h64v8H32zm0 20h48v8H32zm0 20h56v8H32z" fill="#1565c0"/>
    <path d="m110 44a14 14 0 0 1-14 14 14 14 0 0 1-14-14 14 14 0 0 1 14-14 14 14 0 0 1 14 14z" fill="#43a047"/>
    <g>
        <path d="m103.2 36.44a2 2 0 0 0-2.812 0.3125l-6.604 8.256-2.42-2.42a2 2 0 0 0-2.828 0 2 2 0 0 0 0 2.828l5.58 5.58 9.396-11.74a2 2 0 0 0-0.3125-2.812z"
              fill="#fff" stop-color="#000000" stroke-linecap="round"/>
    </g>
</svg>
