<?xml version="1.0" encoding="UTF-8" standalone="no"?>
<!-- Created with Inkscape (http://www.inkscape.org/) -->

<svg
        width="149.4157mm"
        height="149.41568mm"
        viewBox="0 0 149.4157 149.41568"
        version="1.1"
        id="svg1"
        xmlns="http://www.w3.org/2000/svg">
    <defs
            id="defs1"/>
    <g
            id="layer1"
            transform="translate(-35.969381,-23.795447)">
        <path
                id="path1"
                style="fill:#ff0000;stroke-width:2.306;stroke-linecap:round;stroke:#000000;stroke-dasharray:none"
                d="M 107.56449,23.795447 V 38.707715 A 59.87608,59.87608 0 0 0 106.6059,38.765592 59.87608,59.87608 0 0 0 50.882166,95.39056 H 35.969381 v 6.22546 h 14.912785 a 59.87608,59.87608 0 0 0 56.682324,56.68233 v 14.91278 h 6.22546 v -14.91278 a 59.87608,59.87608 0 0 0 56.68285,-56.68233 h 14.91227 v -6.22546 h -14.97325 l -0.1049,-2.31252 A 59.87608,59.87608 0 0 0 113.78995,38.707715 V 23.795447 Z m 0,24.632605 V 67.162826 A 31.49453,31.49453 0 0 0 79.336759,95.39056 H 60.602502 a 50.171394,50.171394 0 0 1 46.663298,-46.942871 50.171394,50.171394 0 0 1 0.29869,-0.01964 z m 6.22546,0 a 50.171394,50.171394 0 0 1 46.85192,45.529004 l 0.0651,1.433504 h -18.6893 A 31.49453,31.49453 0 0 0 113.78995,67.162826 Z m -6.22546,23.869344 V 95.39056 H 84.471847 A 26.389912,26.389912 0 0 1 107.56449,72.297396 Z m 6.22546,0 A 26.389912,26.389912 0 0 1 136.8826,95.39056 H 113.78995 Z M 60.602502,101.61602 h 18.734257 a 31.49453,31.49453 0 0 0 28.227731,28.22773 v 18.73426 A 50.171394,50.171394 0 0 1 60.602502,101.61602 Z m 23.869345,0 h 23.092643 v 23.09265 A 26.389912,26.389912 0 0 1 84.471847,101.61602 Z m 29.318103,0 h 23.09317 a 26.389912,26.389912 0 0 1 -23.09317,23.09265 z m 28.22774,0 h 18.73425 a 50.171394,50.171394 0 0 1 -46.96199,46.96199 v -18.73426 a 31.49453,31.49453 0 0 0 28.22774,-28.22773 z"/>
    </g>
</svg>
